<?xml version="1.0" encoding="utf-8"?>
<!-- Generator: Adobe Illustrator 22.0.0, SVG Export Plug-In . SVG Version: 6.00 Build 0)  -->
<svg version="1.1" id="Livello_1" xmlns="http://www.w3.org/2000/svg" xmlns:xlink="http://www.w3.org/1999/xlink" x="0px" y="0px"
	 viewBox="0 0 440.9 440.4" style="enable-background:new 0 0 440.9 440.4;" xml:space="preserve">
<style type="text/css">
	.st0{fill:#0ADD0A;}
	.st1{fill:#27BF29;}
	.st2{fill:#009165;}
	.st3{fill:#15B236;}
	.st4{fill:#06B153;}
</style>
<g>
	<path class="st0" d="M424.9,295.6c10.9-29.9-4.5-63.1-34.5-74c-30-10.9-63.2,4.5-74.1,34.5c19.3-53.1-8.2-111.9-61.2-131.3
		c30,10.9,63.2-4.5,74.1-34.5s-4.5-63.2-34.5-74.1C407.6,57.3,466,182.7,424.9,295.6"/>
	<path class="st1" d="M220.5,50.7c-10.9,30,4.5,63.2,34.5,74.1c-53.1-19.3-111.9,8.2-131.3,61.2c10.9-30-4.5-63.2-34.5-74.1
		c-30-10.9-63.2,4.5-74.1,34.5C56.3,33.5,181.6-24.9,294.6,16.2C264.6,5.3,231.4,20.7,220.5,50.7"/>
	<path class="st2" d="M329.1,90.3c-10.9,30-44.1,45.4-74.1,34.5s-45.4-44.1-34.5-74.1s44.1-45.4,74.1-34.5
		C324.6,27.1,340.1,60.3,329.1,90.3"/>
	<path class="st3" d="M110.9,351.9c-10.9,30,4.6,63.2,34.5,74.1C32.5,384.8-26,259.5,15.1,146.5c-10.9,30,4.6,63.2,34.6,74.1
		c30,10.9,63.1-4.5,74-34.5c-19.3,53.1,8.2,111.9,61.2,131.3C155,306.4,121.8,321.9,110.9,351.9"/>
	<path class="st2" d="M123.8,186.1c-10.9,30-44,45.4-74,34.5c-30-10.9-45.5-44.1-34.6-74.1c10.9-30,44.1-45.4,74.1-34.5
		S134.7,156.1,123.8,186.1"/>
	<path class="st4" d="M424.9,295.6c-41.1,113-166.5,171.5-279.5,130.4c30,10.9,63.2-4.6,74.1-34.6c10.9-30-4.5-63.1-34.5-74
		c53.1,19.3,111.9-8.2,131.3-61.2c-10.9,30,4.5,63.2,34.5,74.1C380.8,341.1,414,325.6,424.9,295.6"/>
	<path class="st2" d="M219.5,391.4c-10.9,30-44.1,45.5-74.1,34.6c-29.9-10.9-45.4-44.1-34.5-74.1c10.9-30,44.1-45.4,74.1-34.5
		C215,328.3,230.4,361.4,219.5,391.4"/>
	<path class="st2" d="M424.9,295.6c-10.9,30-44.1,45.5-74.1,34.6c-30-10.9-45.4-44.1-34.5-74.1c10.9-30,44.1-45.4,74.1-34.5
		C420.4,232.5,435.8,265.7,424.9,295.6"/>
</g>
</svg>
