<svg id="Livello_1" data-name="Livello 1" xmlns="http://www.w3.org/2000/svg" viewBox="0 0 328.98 60.99"><defs><style>.cls-1{fill:#fff;}.cls-2{fill:#0add0a;}.cls-3{fill:#27bf29;}.cls-4{fill:#009165;}.cls-5{fill:#15b236;}.cls-6{fill:#06b153;}</style></defs><title>Logotype_BG_Nero</title><path class="cls-1" d="M8.55,40.7V9.84h7.28V39.56a9.09,9.09,0,0,0,.57,3.84A3.24,3.24,0,0,0,18.22,45a25.28,25.28,0,0,0,3.48,1.09v4.47h-6a6.37,6.37,0,0,1-5.32-2.26Q8.55,46,8.55,40.7"/><path class="cls-1" d="M24.92,24.28q4.72-1.87,12.63-1.87,4.77,0,7.35,2c1.71,1.33,2.57,3.63,2.57,6.88V50.52H41.7l-1.5-3a4.88,4.88,0,0,1-1.33,1.11,14.44,14.44,0,0,1-3.09,1.48,10.86,10.86,0,0,1-3.79.73,7.73,7.73,0,0,1-5.93-2.21A7.26,7.26,0,0,1,24,43.5V40.91a7.7,7.7,0,0,1,2-5.46C27.28,34,29.3,33.33,32,33.35l6.13,0a14.14,14.14,0,0,0,2,0V31.55c0-1.38-.3-2.29-.89-2.72a6.44,6.44,0,0,0-3.53-.65q-2.66,0-10.86.57Zm6.34,18.19a2.45,2.45,0,0,0,.67,2.05,3.33,3.33,0,0,0,2,.49,9,9,0,0,0,2.88-.54,14.15,14.15,0,0,0,2.47-1.07l.94-.57v-5l-6.71.52c-1.49.14-2.23,1.07-2.23,2.8Z"/><path class="cls-2" d="M69.55,22.46q8.27,0,8.27,9.67V50.52H70.54V32q0-3.74-3.06-3.74a10,10,0,0,0-3.54.55,12.16,12.16,0,0,0-3.12,1.84V50.52H53.55V22.93h5.82l1.45,3c2.53-1.84,4.54-2.89,6-3.17a13,13,0,0,1,2.7-.26"/><path class="cls-2" d="M120.52,22.67q12.31,0,14.76,1.4v4.57H122.76a2.5,2.5,0,0,0-1.72.42,2.17,2.17,0,0,0-.41,1.51v1.24c0,.8.17,1.29.52,1.48a3.32,3.32,0,0,0,1.61.29h6.55a8.08,8.08,0,0,1,4.2,1q3.12,1.77,3.12,6.13v2.86c0,2.59-.64,4.45-1.92,5.56a7.1,7.1,0,0,1-4.83,1.66q-13.09,0-15.38-1.51V44.75h13A1.59,1.59,0,0,0,129.36,43v-1.3a1.5,1.5,0,0,0-1.82-1.77H121.1q-7.75,0-7.75-7.43V30.1q0-7.43,7.17-7.43"/><path class="cls-2" d="M138.45,28.44V24.38l4.47-1.5,1.19-7.69h6.08v7.69h6.19v5.56h-6.19V39.5a9.09,9.09,0,0,0,.58,3.9A3.22,3.22,0,0,0,152.53,45,25.28,25.28,0,0,0,156,46.05v4.47h-6.34q-6.75,0-6.75-9.87V28.44Z"/><path class="cls-2" d="M159.86,50.52V22.93H166l1.14,3.48q3.9-3.73,7.9-3.74a10.05,10.05,0,0,1,3.07.31v7c-1-.1-2.29-.15-3.95-.15a11.32,11.32,0,0,0-4.13.65,6.49,6.49,0,0,0-2.89,2.41V50.52Z"/><path class="cls-2" d="M181.63,24.28q4.73-1.87,12.62-1.87,4.78,0,7.36,2c1.71,1.33,2.57,3.63,2.57,6.88V50.52h-5.77l-1.51-3a4.77,4.77,0,0,1-1.32,1.11,14.92,14.92,0,0,1-3.09,1.48,10.87,10.87,0,0,1-3.8.73,7.72,7.72,0,0,1-5.92-2.21,7.27,7.27,0,0,1-2.08-5.12V40.91a7.7,7.7,0,0,1,2-5.46q2-2.13,6.08-2.1l6.13,0a13.92,13.92,0,0,0,2,0V31.55c0-1.38-.29-2.29-.88-2.72a6.46,6.46,0,0,0-3.53-.65q-2.66,0-10.86.57ZM188,42.47a2.45,2.45,0,0,0,.67,2.05,3.33,3.33,0,0,0,2,.49,9,9,0,0,0,2.88-.54A14.15,14.15,0,0,0,196,43.4l.93-.57v-5l-6.7.52c-1.49.14-2.23,1.07-2.23,2.8Z"/><path class="cls-1" d="M206.88,28.44V24.38l4.47-1.5,1.19-7.69h6.08v7.69h6.19v5.56h-6.19V39.5a9.09,9.09,0,0,0,.58,3.9A3.22,3.22,0,0,0,221,45a25.28,25.28,0,0,0,3.48,1.09v4.47H218.1q-6.75,0-6.75-9.87V28.44Z"/><path class="cls-1" d="M235.3,23a24.59,24.59,0,0,1,4.16-.31c1.56,0,2.77,0,3.64.08a21.72,21.72,0,0,1,2.62.31,7.43,7.43,0,0,1,2.16.68A7.18,7.18,0,0,1,249.49,25a5.11,5.11,0,0,1,1.19,1.79,14.31,14.31,0,0,1,.94,5.38,9.5,9.5,0,0,1-.89,4.6q-1.71,3-6.8,3h-8.78a10.89,10.89,0,0,0,.31,2.91,2.59,2.59,0,0,0,1.14,1.59,4.73,4.73,0,0,0,1.74.62c.61.09,2.26.13,5,.13a51.77,51.77,0,0,0,7.8-.57v4.93a17.71,17.71,0,0,1-4.7,1.1l-3.25.26c-.59,0-1.32,0-2.18,0-1.15,0-2.48.05-4,.05-3.42,0-5.8-1.07-7.11-3.22s-2-5.64-2-10.47.53-8.26,1.59-10.29,3-3.28,5.84-3.77m9,9.36c0-1.74-.23-2.85-.7-3.36a3.92,3.92,0,0,0-2.83-.75,21.33,21.33,0,0,0-2.94.13,3.38,3.38,0,0,0-1.55.73,2.76,2.76,0,0,0-1,1.79,13.06,13.06,0,0,0-.2,2.26v1.27h6.91q2.28,0,2.28-2.07"/><path class="cls-1" d="M255.57,50.52V22.93h6.13l1.14,3.48q3.9-3.73,7.9-3.74a9.93,9.93,0,0,1,3.06.31v7c-1-.1-2.28-.15-3.95-.15a11.36,11.36,0,0,0-4.13.65,6.52,6.52,0,0,0-2.88,2.41V50.52Z"/><path class="cls-1" d="M277.23,50.52V22.93h6.13l1.15,3.48c2.59-2.49,5.23-3.74,7.89-3.74a10,10,0,0,1,3.07.31v7c-1-.1-2.29-.15-4-.15a11.36,11.36,0,0,0-4.13.65,6.52,6.52,0,0,0-2.88,2.41V50.52Z"/><path class="cls-1" d="M299,24.28q4.72-1.87,12.63-1.87,4.78,0,7.35,2c1.72,1.33,2.57,3.63,2.57,6.88V50.52h-5.76l-1.51-3A4.88,4.88,0,0,1,313,48.62a14.44,14.44,0,0,1-3.09,1.48,10.81,10.81,0,0,1-3.79.73,7.7,7.7,0,0,1-5.92-2.21,7.22,7.22,0,0,1-2.08-5.12V40.91a7.74,7.74,0,0,1,2-5.46c1.32-1.42,3.34-2.12,6.08-2.1l6.13,0a14.14,14.14,0,0,0,2,0V31.55c0-1.38-.3-2.29-.88-2.72a6.48,6.48,0,0,0-3.54-.65q-2.64,0-10.86.57Zm6.34,18.19a2.45,2.45,0,0,0,.68,2.05,3.31,3.31,0,0,0,2,.49,9.06,9.06,0,0,0,2.89-.54,14.35,14.35,0,0,0,2.46-1.07l.94-.57v-5l-6.7.52c-1.49.14-2.24,1.07-2.24,2.8Z"/><path class="cls-2" d="M110.19,42.49a4.08,4.08,0,0,0-7.67-2.79,7.26,7.26,0,0,0-4.33-9.28,4.08,4.08,0,0,0,2.8-7.67,15.42,15.42,0,0,1,9.2,19.74"/><path class="cls-3" d="M95.75,25.19a4.08,4.08,0,0,0,2.44,5.23,7.26,7.26,0,0,0-9.28,4.33A4.08,4.08,0,0,0,81.24,32,15.43,15.43,0,0,1,101,22.75a4.09,4.09,0,0,0-5.24,2.44"/><path class="cls-4" d="M103.42,28A4.08,4.08,0,1,1,101,22.75,4.07,4.07,0,0,1,103.42,28"/><path class="cls-5" d="M88,46.47a4.09,4.09,0,0,0,2.44,5.23A15.44,15.44,0,0,1,81.24,32a4.08,4.08,0,1,0,7.67,2.8A7.26,7.26,0,0,0,93.24,44,4.09,4.09,0,0,0,88,46.47"/><path class="cls-4" d="M88.91,34.75a4.08,4.08,0,1,1-2.44-5.23,4.08,4.08,0,0,1,2.44,5.23"/><path class="cls-6" d="M110.19,42.49A15.42,15.42,0,0,1,90.44,51.7,4.08,4.08,0,1,0,93.24,44a7.26,7.26,0,0,0,9.28-4.33,4.08,4.08,0,1,0,7.67,2.79"/><path class="cls-4" d="M95.68,49.26A4.09,4.09,0,1,1,93.24,44a4.09,4.09,0,0,1,2.44,5.23"/><path class="cls-4" d="M110.19,42.49a4.08,4.08,0,1,1-2.44-5.23,4.09,4.09,0,0,1,2.44,5.23"/><path class="cls-2" d="M102.7,8.57A12.74,12.74,0,0,1,89.81,19.64,25.22,25.22,0,0,1,99.2,9.71c-2,.4-9.33,6.09-10.58,8.75A14.36,14.36,0,0,1,88.73,17a12.75,12.75,0,0,1,14-11,12.24,12.24,0,0,1-.07,2.56"/></svg>